<?xml version="1.0" encoding="UTF-8" standalone="no"?>
<!-- Created with Inkscape (http://www.inkscape.org/) -->

<svg
   xmlns:dc="http://purl.org/dc/elements/1.1/"
   xmlns:cc="http://creativecommons.org/ns#"
   xmlns:rdf="http://www.w3.org/1999/02/22-rdf-syntax-ns#"
   xmlns:svg="http://www.w3.org/2000/svg"
   xmlns="http://www.w3.org/2000/svg"
   xmlns:sodipodi="http://sodipodi.sourceforge.net/DTD/sodipodi-0.dtd"
   xmlns:inkscape="http://www.inkscape.org/namespaces/inkscape"
   width="47.930717mm"
   height="55.245579mm"
   viewBox="0 0 47.930718 55.245579"
   version="1.1"
   id="svg8"
   inkscape:version="0.92.3 (2405546, 2018-03-11)"
   sodipodi:docname="importas.svg">
  <defs
     id="defs2" />
  <sodipodi:namedview
     id="base"
     pagecolor="#ffffff"
     bordercolor="#666666"
     borderopacity="1.0"
     inkscape:pageopacity="0.0"
     inkscape:pageshadow="2"
     inkscape:zoom="4"
     inkscape:cx="107.18179"
     inkscape:cy="123.0555"
     inkscape:document-units="mm"
     inkscape:current-layer="layer1"
     showgrid="false"
     inkscape:window-width="3691"
     inkscape:window-height="2126"
     inkscape:window-x="3018"
     inkscape:window-y="-11"
     inkscape:window-maximized="1"
     fit-margin-top="0"
     fit-margin-left="0"
     fit-margin-right="0"
     fit-margin-bottom="0" />
  <metadata
     id="metadata5">
    <rdf:RDF>
      <cc:Work
         rdf:about="">
        <dc:format>image/svg+xml</dc:format>
        <dc:type
           rdf:resource="http://purl.org/dc/dcmitype/StillImage" />
        <dc:title />
      </cc:Work>
    </rdf:RDF>
  </metadata>
  <g
     inkscape:label="レイヤー 1"
     inkscape:groupmode="layer"
     id="layer1"
     transform="translate(-18.078203,-151.12892)">
    <path
       style="fill:#fff6d5;stroke:#800080;stroke-width:1.47843194;stroke-miterlimit:4;stroke-dasharray:none"
       d="m 65.301991,192.12642 -23.25843,13.37472 -23.258429,-13.37472 v -26.74944 l 23.258429,-13.3747 23.25843,13.3747 z"
       id="path4537-4-9-8"
       inkscape:connector-curvature="0"
       inkscape:export-xdpi="96.09095"
       inkscape:export-ydpi="96.09095" />
    <text
       xml:space="preserve"
       style="font-style:normal;font-weight:normal;font-size:10.25035954px;line-height:1.25;font-family:sans-serif;letter-spacing:0px;word-spacing:0px;fill:#800080;fill-opacity:1;stroke:none;stroke-width:0.64064747"
       x="29.708595"
       y="191.38329"
       id="text849"><tspan
         sodipodi:role="line"
         id="tspan847"
         x="29.708595"
         y="191.38329"
         style="font-style:normal;font-variant:normal;font-weight:bold;font-stretch:normal;font-family:'DejaVu Sans Mono';-inkscape-font-specification:'DejaVu Sans Mono';fill:#800080;stroke-width:0.64064747">%a %</tspan></text>
    <g
       aria-label="%as%"
       style="font-style:normal;font-weight:normal;font-size:10.25035954px;line-height:1.25;font-family:sans-serif;letter-spacing:0px;word-spacing:0px;fill:#800080;fill-opacity:1;stroke:none;stroke-width:0.64064747"
       id="text849-0"
       transform="translate(0,-0.52916667)">
      <path
         d="m 46.876833,186.49073 c 0.05234,0.0551 0.102642,0.11834 0.124239,0.19122 0.06132,0.20694 0,0.64751 0,0.64751 -3.55e-4,0.0267 -0.01692,0.0488 -0.03442,0.0667 -0.02124,0.0217 -0.05064,0.0358 -0.08003,0.0434 -0.140546,0.0362 -0.291172,0.0195 -0.435393,0.003 -0.100745,-0.0114 -0.188346,-0.0381 -0.29601,-0.0699 -0.290293,-0.0901 -0.582255,-0.13514 -0.875885,-0.13514 -0.326997,0 -0.573913,0.0484 -0.740748,0.14515 -0.166835,0.0934 -0.250253,0.23357 -0.250253,0.42042 0,0.26694 0.357027,0.48383 1.071082,0.65066 l 0.05506,0.015 0.420425,0.10011 c 0.533873,0.12679 0.924267,0.332 1.171183,0.61562 0.250253,0.28028 0.37538,0.66066 0.37538,1.14115 0,0.57725 -0.190192,1.01103 -0.570577,1.30132 -0.377047,0.28695 -0.945956,0.43043 -1.706725,0.43043 -0.337007,0 -0.682356,-0.03 -1.036047,-0.0901 -0.353691,-0.0567 -0.712386,-0.14349 -1.076087,-0.26026 v -1.2813 c 0.32366,0.18352 0.652325,0.32366 0.985996,0.42043 0.337007,0.0968 0.662336,0.14514 0.975986,0.14514 0.343681,0 0.603944,-0.05 0.78079,-0.15015 0.176845,-0.1001 0.265268,-0.24525 0.265268,-0.43544 0,-0.18685 -0.0634,-0.33033 -0.190193,-0.43043 -0.123458,-0.1001 -0.420425,-0.20688 -0.8909,-0.32033 l -0.40541,-0.0901 c -0.560566,-0.12679 -0.969312,-0.32533 -1.226239,-0.5956 -0.256926,-0.27027 -0.385389,-0.63231 -0.385389,-1.0861 0,-0.54055 0.195197,-0.96097 0.585591,-1.26127 0.390395,-0.30031 0.939283,-0.45046 1.646665,-0.45046 0.316987,0 0.632305,0.0267 0.945956,0.0801 0.178348,0.0282 0.353399,0.0653 0.525539,0.10985 0.08424,0.0218 0.126559,0.0356 0.184248,0.0661 0.03164,0.0167 0.06225,0.0371 0.0869,0.0631 z"
         style="font-style:normal;font-variant:normal;font-weight:bold;font-stretch:normal;font-family:'DejaVu Sans Mono';-inkscape-font-specification:'DejaVu Sans Mono';fill:#800080;stroke-width:0.64064747"
         id="path934"
         inkscape:connector-curvature="0"
         sodipodi:nodetypes="cacaaacscsccccscsccccscsccccscscsaac" />
    </g>
    <text
       xml:space="preserve"
       style="font-style:normal;font-weight:normal;font-size:10.25035954px;line-height:1.25;font-family:sans-serif;letter-spacing:0px;word-spacing:0px;fill:#800080;fill-opacity:1;stroke:none;stroke-width:0.64064747"
       x="23.59992"
       y="173.24072"
       id="text849-3"><tspan
         sodipodi:role="line"
         id="tspan847-2"
         x="23.59992"
         y="173.24072"
         style="font-style:normal;font-variant:normal;font-weight:bold;font-stretch:normal;font-family:'DejaVu Sans Mono';-inkscape-font-specification:'DejaVu Sans Mono';fill:#800080;stroke-width:0.64064747"> mport</tspan></text>
    <text
       xml:space="preserve"
       style="font-style:normal;font-weight:normal;font-size:4.04242086px;line-height:1.25;font-family:sans-serif;letter-spacing:0px;word-spacing:0px;fill:#333333;fill-opacity:1;stroke:none;stroke-width:0.2526513"
       x="33.463287"
       y="180.89586"
       id="text849-1"><tspan
         sodipodi:role="line"
         id="tspan847-0"
         x="33.463287"
         y="180.89586"
         style="font-style:normal;font-variant:normal;font-weight:normal;font-stretch:normal;font-family:'DejaVu Sans Mono';-inkscape-font-specification:'DejaVu Sans Mono';fill:#333333;stroke-width:0.2526513">package</tspan></text>
    <text
       xml:space="preserve"
       style="font-style:normal;font-weight:normal;font-size:4.04242086px;line-height:1.25;font-family:sans-serif;letter-spacing:0px;word-spacing:0px;fill:#333333;fill-opacity:1;stroke:none;stroke-width:0.2526513"
       x="38.395908"
       y="197.05142"
       id="text849-1-2"><tspan
         sodipodi:role="line"
         id="tspan847-0-8"
         x="38.395908"
         y="197.05142"
         style="font-style:normal;font-variant:normal;font-weight:normal;font-stretch:normal;font-family:'DejaVu Sans Mono';-inkscape-font-specification:'DejaVu Sans Mono';fill:#333333;stroke-width:0.2526513">pkg</tspan></text>
    <circle
       style="opacity:1;fill:#fff6d5;fill-opacity:1;stroke:#800080;stroke-width:0.1;stroke-linejoin:miter;stroke-miterlimit:4;stroke-dasharray:none;stroke-dashoffset:0;stroke-opacity:1;paint-order:normal"
       id="path907"
       cx="46.55714"
       cy="186.22801"
       r="0.29232603" />
    <text
       xml:space="preserve"
       style="font-style:normal;font-weight:normal;font-size:2.0017066px;line-height:1.25;font-family:sans-serif;letter-spacing:0px;word-spacing:0px;fill:#800080;fill-opacity:1;stroke:none;stroke-width:0.12510666"
       x="63.363899"
       y="137.61185"
       id="text911"
       transform="scale(0.73374419,1.3628728)"><tspan
         sodipodi:role="line"
         id="tspan909"
         x="63.363899"
         y="137.61185"
         style="fill:#800080;stroke-width:0.12510666">~</tspan></text>
    <g
       aria-label="i"
       style="font-style:normal;font-weight:normal;font-size:10.25035954px;line-height:1.25;font-family:sans-serif;letter-spacing:0px;word-spacing:0px;fill:#800080;fill-opacity:1;stroke:none;stroke-width:0.64064747"
       id="text849-3-1">
      <path
         d="m 26.14249,165.43646 h 1.466482 v 1.71173 H 26.14249 Z"
         style="font-style:normal;font-variant:normal;font-weight:bold;font-stretch:normal;font-family:'DejaVu Sans Mono';-inkscape-font-specification:'DejaVu Sans Mono';fill:#800080;stroke-width:0.64064747"
         id="path975"
         inkscape:connector-curvature="0"
         sodipodi:nodetypes="ccccc" />
    </g>
    <text
       xml:space="preserve"
       style="font-style:normal;font-weight:normal;font-size:11.82279491px;line-height:1.25;font-family:sans-serif;letter-spacing:0px;word-spacing:0px;fill:#800080;fill-opacity:1;stroke:none;stroke-width:0.73892468"
       x="20.16251"
       y="196.28224"
       id="text849-3-3"
       transform="scale(1.133003,0.8826102)"><tspan
         sodipodi:role="line"
         id="tspan847-2-7"
         x="20.16251"
         y="196.28224"
         style="font-style:normal;font-variant:normal;font-weight:bold;font-stretch:normal;font-family:'DejaVu Sans Mono';-inkscape-font-specification:'DejaVu Sans Mono';fill:#800080;stroke-width:0.73892468">↓</tspan></text>
  </g>
</svg>
